# xmcd CD database file
#
# Track frame offsets:
#	150
#	19892
#	38157
#	59017
#	81022
#	100427
#	127117
#	145545
#	165982
#	191490
#
# Disc length: 2837 seconds
#
# Revision: 0
# Processed by: cddbd v1.5PL3 Copyright (c) Steve Scherf et al.
# Submitted via: CDex 1.50Beta7
#
DISCID=830b130a
DTITLE=遠藤京子 - 恋愛
DYEAR=1992
DGENRE=J-Pop
TTITLE0=友達だから
TTITLE1=素足のままで
TTITLE2=愛を与えられないまま
TTITLE3=蒼い森
TTITLE4=私を変えたものは
TTITLE5=泣きたい日もある
TTITLE6=いじわる
TTITLE7=結婚
TTITLE8=同じ夢見てる
TTITLE9=祈り
EXTD=YEAR: 1992
EXTT0=
EXTT1=
EXTT2=
EXTT3=
EXTT4=
EXTT5=
EXTT6=
EXTT7=
EXTT8=
EXTT9=
PLAYORDER=
